<?xml version="1.0" encoding="UTF-8"?>
<svg version="1.1" xmlns="http://www.w3.org/2000/svg" width="159" height="200">
<path d="M0 0 C8.47751584 3.06600934 16.15844494 8.73692536 23.72607422 13.56152344 C26.13068094 15.08266825 28.5498812 16.57829194 30.97265625 18.0703125 C32.64845081 19.10935354 34.32423229 20.14841566 36 21.1875 C36.77657959 21.66195557 37.55315918 22.13641113 38.35327148 22.62524414 C51.93887383 31.10365283 51.93887383 31.10365283 53.78613281 36.14575195 C54.14814075 38.51027565 54.21241442 40.67300703 54.125 43.0625 C54.1146875 43.86091309 54.104375 44.65932617 54.09375 45.48193359 C53.83949798 49.52069348 53.50873169 51.43581831 50.7421875 54.50390625 C48.19303863 56.01088172 45.82395028 57.12255831 43 58 C44.0828125 58.86625 44.0828125 58.86625 45.1875 59.75 C46.115625 60.4925 47.04375 61.235 48 62 C48.9075 62.61875 49.815 63.2375 50.75 63.875 C54.53288762 67.4477272 54.03855737 71.57661876 54.1875 76.5 C54.10209995 80.41526363 53.91202683 83.49461748 52 87 C49.47353208 88.94898954 46.82140696 90.51712099 44 92 C44.55429688 92.31710938 45.10859375 92.63421875 45.6796875 92.9609375 C49.02504107 95.11577378 51.49617933 96.74531147 53.01171875 100.51953125 C53.82996743 104.48310466 54.29553875 107.11338376 53 111 C51.44042969 112.22338867 51.44042969 112.22338867 49.421875 113.41796875 C48.67993896 113.86342041 47.93800293 114.30887207 47.17358398 114.76782227 C46.37380127 115.23631592 45.57401855 115.70480957 44.75 116.1875 C43.08969583 117.17943996 41.42954029 118.17162873 39.76953125 119.1640625 C38.95178223 119.64907227 38.1340332 120.13408203 37.29150391 120.63378906 C34.3168256 122.40731344 31.37747294 124.2320213 28.4375 126.0625 C22.55853439 129.68898837 16.61143493 133.19387811 10.64624023 136.67602539 C9.95602783 137.07942139 9.26581543 137.48281738 8.5546875 137.8984375 C7.94093262 138.25599121 7.32717773 138.61354492 6.69482422 138.98193359 C5.10002325 139.93991689 3.54795397 140.96803069 2 142 C-4.08079843 143.58100759 -8.46622873 142.65730601 -14 140 C-16.47599365 138.40948882 -18.83230295 136.70553048 -21.19921875 134.95703125 C-24.35375421 132.7528161 -27.63978413 130.86508016 -31 129 C-36.09239868 126.16010048 -40.89023108 123.08339469 -45.61328125 119.6640625 C-48.91778209 117.3601061 -52.37515378 115.35705498 -55.87109375 113.359375 C-57.9353659 112.04127095 -59.47629086 110.91538359 -61 109 C-61.85081241 102.51255539 -61.85081241 102.51255539 -60.015625 99.25 C-57.67734497 96.36323453 -54.98108671 94.1721166 -52 92 C-52.84884766 91.36771484 -52.84884766 91.36771484 -53.71484375 90.72265625 C-54.44832031 90.17480469 -55.18179688 89.62695312 -55.9375 89.0625 C-56.66839844 88.51722656 -57.39929687 87.97195312 -58.15234375 87.41015625 C-60 86 -60 86 -61 85 C-61.12715522 82.21737057 -61.18521315 79.4705927 -61.1875 76.6875 C-61.19974609 75.91470703 -61.21199219 75.14191406 -61.22460938 74.34570312 C-61.24373064 66.9330272 -61.24373064 66.9330272 -59 64 C-57.0546875 62.515625 -57.0546875 62.515625 -54.875 61.25 C-54.15054688 60.82203125 -53.42609375 60.3940625 -52.6796875 59.953125 C-52.12539063 59.63859375 -51.57109375 59.3240625 -51 59 C-51.721875 58.4225 -52.44375 57.845 -53.1875 57.25 C-54.115625 56.5075 -55.04375 55.765 -56 55 C-57.30710938 54.18595703 -57.30710938 54.18595703 -58.640625 53.35546875 C-61.36680761 50.63379969 -61.62406323 49.00442993 -61.63476562 45.20507812 C-61.61091797 44.49802734 -61.58707031 43.79097656 -61.5625 43.0625 C-61.57345703 42.35931641 -61.58441406 41.65613281 -61.59570312 40.93164062 C-61.54875554 37.59210272 -61.14356229 35.25327958 -59.4921875 32.33984375 C-56.13543825 29.18828764 -52.48980405 26.88223364 -48.5625 24.5 C-47.73572754 23.98880615 -46.90895508 23.4776123 -46.05712891 22.95092773 C-44.29214502 21.8605768 -42.52481825 20.77401078 -40.75537109 19.69091797 C-37.95984607 17.97535831 -35.17594905 16.2422319 -32.39453125 14.50390625 C-30.55487385 13.35647201 -28.71503466 12.20932916 -26.875 11.0625 C-26.02365479 10.53140625 -25.17230957 10.0003125 -24.29516602 9.453125 C-20.27432285 6.96202326 -16.23183401 4.51401382 -12.12890625 2.16015625 C-11.0781189 1.55699585 -11.0781189 1.55699585 -10.00610352 0.94165039 C-6.59245877 -0.66068961 -3.59495968 -0.8154918 0 0 Z " fill="#5FAAD7" transform="translate(90,36)"/>
<path d="M0 0 C3.7910119 1.44950455 7.3874638 3.15172566 11 5 C11 5.66 11 6.32 11 7 C12.98 7.66 14.96 8.32 17 9 C17 9.66 17 10.32 17 11 C17.71671875 11.27972656 18.4334375 11.55945313 19.171875 11.84765625 C21.91217198 12.96421372 24.58310909 14.15595512 27.25 15.4375 C28.12140625 15.84871094 28.9928125 16.25992188 29.890625 16.68359375 C32 18 32 18 33 21 C35.92914165 22.17082878 35.92914165 22.17082878 39 23 C39.66 23.33 40.32 23.66 41 24 C41 24.66 41 25.32 41 26 C42.7015625 26.4640625 42.7015625 26.4640625 44.4375 26.9375 C48 28 48 28 49 29 C58.17434594 30.41390971 64.38855592 27.89130565 72.1640625 23.53125 C75 22 75 22 77 22 C77 21.34 77 20.68 77 20 C82.625 17 82.625 17 86 17 C86 16.34 86 15.68 86 15 C88.475 14.505 88.475 14.505 91 14 C91 13.34 91 12.68 91 12 C94 10 94 10 97 10 C97 9.34 97 8.68 97 8 C102.75 5 102.75 5 105 5 C105.33 4.01 105.66 3.02 106 2 C108.5625 0.8125 108.5625 0.8125 111 0 C112.22690583 16.40986547 112.22690583 16.40986547 109.21875 20.30859375 C107.1545929 21.53327851 105.31722114 22.3896605 103 23 C103.55429688 23.31710938 104.10859375 23.63421875 104.6796875 23.9609375 C108.02504107 26.11577378 110.49617933 27.74531147 112.01171875 31.51953125 C112.82996743 35.48310466 113.29553875 38.11338376 112 42 C110.44042969 43.22338867 110.44042969 43.22338867 108.421875 44.41796875 C107.67993896 44.86342041 106.93800293 45.30887207 106.17358398 45.76782227 C105.37380127 46.23631592 104.57401855 46.70480957 103.75 47.1875 C102.08969583 48.17943996 100.42954029 49.17162873 98.76953125 50.1640625 C97.95178223 50.64907227 97.1340332 51.13408203 96.29150391 51.63378906 C93.3168256 53.40731344 90.37747294 55.2320213 87.4375 57.0625 C81.55853439 60.68898837 75.61143493 64.19387811 69.64624023 67.67602539 C68.95602783 68.07942139 68.26581543 68.48281738 67.5546875 68.8984375 C66.94093262 69.25599121 66.32717773 69.61354492 65.69482422 69.98193359 C64.10002325 70.93991689 62.54795397 71.96803069 61 73 C54.91920157 74.58100759 50.53377127 73.65730601 45 71 C42.52400635 69.40948882 40.16769705 67.70553048 37.80078125 65.95703125 C34.64624579 63.7528161 31.36021587 61.86508016 28 60 C22.90760132 57.16010048 18.10976892 54.08339469 13.38671875 50.6640625 C10.08221791 48.3601061 6.62484622 46.35705498 3.12890625 44.359375 C1.0646341 43.04127095 -0.47629086 41.91538359 -2 40 C-2.85081241 33.51255539 -2.85081241 33.51255539 -1.015625 30.25 C1.30027656 27.39086227 3.94533757 25.03644162 7 23 C6.360625 22.443125 5.72125 21.88625 5.0625 21.3125 C2.80319013 18.77933439 2.36850953 17.31658576 2 14 C1.34 14 0.68 14 0 14 C-0.85380428 11.03878992 -1.13517764 8.3912356 -1.125 5.3125 C-1.12757812 4.52488281 -1.13015625 3.73726563 -1.1328125 2.92578125 C-1 1 -1 1 0 0 Z " fill="#193348" transform="translate(31,105)"/>
<path d="M0 0 C3.67383814 1.67718698 7.27933035 3.47451502 10.875 5.3125 C10.875 5.9725 10.875 6.6325 10.875 7.3125 C11.65875 7.621875 12.4425 7.93125 13.25 8.25 C15.875 9.3125 15.875 9.3125 17.875 10.3125 C17.875 10.9725 17.875 11.6325 17.875 12.3125 C19.009375 12.580625 20.14375 12.84875 21.3125 13.125 C23.0759375 13.7128125 23.0759375 13.7128125 24.875 14.3125 C25.205 15.3025 25.535 16.2925 25.875 17.3125 C27.7445513 17.89090369 27.7445513 17.89090369 29.875 18.3125 C31.17398579 19.0570733 32.44483753 19.85230933 33.6875 20.6875 C37.30327468 23.03030532 40.89245906 24.68697309 44.875 26.3125 C45.205 26.6425 45.535 26.9725 45.875 27.3125 C48.57154854 27.38569621 51.24191458 27.40492537 53.9375 27.375 C54.69611328 27.37048828 55.45472656 27.36597656 56.23632812 27.36132812 C58.11591871 27.3495068 59.99546899 27.33157078 61.875 27.3125 C61.875 26.6525 61.875 25.9925 61.875 25.3125 C62.68324219 24.91417969 63.49148437 24.51585938 64.32421875 24.10546875 C65.39285156 23.57566406 66.46148437 23.04585937 67.5625 22.5 C68.61824219 21.97792969 69.67398438 21.45585938 70.76171875 20.91796875 C73.85869662 19.36960232 73.85869662 19.36960232 76.64453125 17.61328125 C78.875 16.3125 78.875 16.3125 80.875 16.3125 C80.875 15.6525 80.875 14.9925 80.875 14.3125 C81.968125 13.796875 83.06125 13.28125 84.1875 12.75 C88.88057268 10.42445236 93.19367441 7.59427017 97.5546875 4.703125 C99.875 3.3125 99.875 3.3125 101.875 3.3125 C101.875 2.6525 101.875 1.9925 101.875 1.3125 C104.845 0.8175 104.845 0.8175 107.875 0.3125 C107.875 5.9225 107.875 11.5325 107.875 17.3125 C103.42 19.7875 103.42 19.7875 98.875 22.3125 C99.9578125 23.17875 99.9578125 23.17875 101.0625 24.0625 C101.990625 24.805 102.91875 25.5475 103.875 26.3125 C104.7825 26.93125 105.69 27.55 106.625 28.1875 C109.98370191 31.35960736 109.79187923 34.07219733 109.95703125 38.5234375 C110.03129625 42.58775834 109.89741632 46.35063675 108.875 50.3125 C108.545 50.3125 108.215 50.3125 107.875 50.3125 C107.545 45.0325 107.215 39.7525 106.875 34.3125 C102.96348411 35.98017015 102.96348411 35.98017015 100.9375 38.375 C98.56660532 40.60220409 97.05835068 40.95879437 93.875 41.3125 C93.875 41.9725 93.875 42.6325 93.875 43.3125 C91.895 43.9725 89.915 44.6325 87.875 45.3125 C87.875 45.9725 87.875 46.6325 87.875 47.3125 C86.225 47.6425 84.575 47.9725 82.875 48.3125 C82.875 48.9725 82.875 49.6325 82.875 50.3125 C79.905 51.3025 76.935 52.2925 73.875 53.3125 C73.875 53.9725 73.875 54.6325 73.875 55.3125 C56.08450316 65.42689414 56.08450316 65.42689414 45.875 63.3125 C42.91027196 62.22604687 40.58396206 60.97955358 37.875 59.3125 C37.875 58.6525 37.875 57.9925 37.875 57.3125 C36.988125 57.065 36.10125 56.8175 35.1875 56.5625 C31.875 55.3125 31.875 55.3125 29.625 53.5 C26.35637159 50.89995467 22.93638405 49.2536468 19.1796875 47.4609375 C16.875 46.3125 16.875 46.3125 13.875 44.3125 C13.875 43.6525 13.875 42.9925 13.875 42.3125 C11.895 41.6525 9.915 40.9925 7.875 40.3125 C7.875 39.6525 7.875 38.9925 7.875 38.3125 C6.988125 38.02375 6.10125 37.735 5.1875 37.4375 C2.38457267 36.48556241 -0.37655423 35.41187831 -3.125 34.3125 C-3.125 38.6025 -3.125 42.8925 -3.125 47.3125 C-2.465 47.3125 -1.805 47.3125 -1.125 47.3125 C-0.465 49.2925 0.195 51.2725 0.875 53.3125 C-1.59300047 52.16076645 -3.17283565 51.26466435 -5.125 49.3125 C-5.3243633 46.48036839 -5.40320873 43.76777632 -5.375 40.9375 C-5.38273437 40.16921875 -5.39046875 39.4009375 -5.3984375 38.609375 C-5.37303296 31.26746156 -5.37303296 31.26746156 -3.125 28.3125 C-1.1796875 26.828125 -1.1796875 26.828125 1 25.5625 C1.72445312 25.13453125 2.44890625 24.7065625 3.1953125 24.265625 C3.74960937 23.95109375 4.30390625 23.6365625 4.875 23.3125 C4.38 22.69375 3.885 22.075 3.375 21.4375 C1.875 19.3125 1.875 19.3125 1.875 17.3125 C1.215 17.3125 0.555 17.3125 -0.125 17.3125 C-0.785 16.3225 -1.445 15.3325 -2.125 14.3125 C-2.785 14.3125 -3.445 14.3125 -4.125 14.3125 C-4.125 9.6925 -4.125 5.0725 -4.125 0.3125 C-2.125 -0.6875 -2.125 -0.6875 0 0 Z " fill="#3F87B5" transform="translate(34.125,71.6875)"/>
<path d="M0 0 C3.7910119 1.44950455 7.3874638 3.15172566 11 5 C11 5.66 11 6.32 11 7 C12.98 7.66 14.96 8.32 17 9 C17 9.66 17 10.32 17 11 C17.71671875 11.27972656 18.4334375 11.55945313 19.171875 11.84765625 C21.91217198 12.96421372 24.58310909 14.15595512 27.25 15.4375 C28.12140625 15.84871094 28.9928125 16.25992188 29.890625 16.68359375 C32 18 32 18 33 21 C35.92914165 22.17082878 35.92914165 22.17082878 39 23 C39.66 23.33 40.32 23.66 41 24 C41 24.66 41 25.32 41 26 C42.7015625 26.4640625 42.7015625 26.4640625 44.4375 26.9375 C48 28 48 28 49 29 C58.17434594 30.41390971 64.38855592 27.89130565 72.1640625 23.53125 C75 22 75 22 77 22 C77 21.34 77 20.68 77 20 C82.625 17 82.625 17 86 17 C86 16.34 86 15.68 86 15 C88.475 14.505 88.475 14.505 91 14 C91 13.34 91 12.68 91 12 C94 10 94 10 97 10 C97 9.34 97 8.68 97 8 C102.75 5 102.75 5 105 5 C105.33 4.01 105.66 3.02 106 2 C108.5625 0.8125 108.5625 0.8125 111 0 C112.22690583 16.40986547 112.22690583 16.40986547 109.21875 20.30859375 C107.1545929 21.53327851 105.31722114 22.3896605 103 23 C104.32 24.32 105.64 25.64 107 27 C106.05125 26.979375 105.1025 26.95875 104.125 26.9375 C101.09333717 26.77448174 101.09333717 26.77448174 99 28 C99 27.01 99 26.02 99 25 C98.236875 25.33 97.47375 25.66 96.6875 26 C94 27 94 27 91 27 C90.7215625 27.8971875 90.7215625 27.8971875 90.4375 28.8125 C88.32351935 32.02942707 85.51758673 32.60509492 82 34 C81.2575 34.556875 80.515 35.11375 79.75 35.6875 C78 37 78 37 75 37 C75 37.66 75 38.32 75 39 C73 40 71 41 69 42 C68.39671875 42.34804687 67.7934375 42.69609375 67.171875 43.0546875 C61.94053781 45.96807447 57.02196187 47.25516788 51 47 C48 45.875 48 45.875 45 44 C43.21485192 43.09124637 41.42266849 42.19622779 39.625 41.3125 C38.08333333 40.54166667 36.54166667 39.77083333 35 39 C35 38.34 35 37.68 35 37 C34.484375 36.7525 33.96875 36.505 33.4375 36.25 C30.22815849 34.60418384 27.12414336 32.8023904 24 31 C24 30.34 24 29.68 24 29 C22.8553125 28.7834375 22.8553125 28.7834375 21.6875 28.5625 C19 28 19 28 16 27 C13.99124558 27.27571139 11.98821313 27.60235737 10 28 C9.67 27.34 9.34 26.68 9 26 C6.97536745 25.34786708 6.97536745 25.34786708 5 25 C5.66 24.34 6.32 23.68 7 23 C6.360625 22.443125 5.72125 21.88625 5.0625 21.3125 C2.80319013 18.77933439 2.36850953 17.31658576 2 14 C1.34 14 0.68 14 0 14 C-0.85380428 11.03878992 -1.13517764 8.3912356 -1.125 5.3125 C-1.12757812 4.52488281 -1.13015625 3.73726563 -1.1328125 2.92578125 C-1 1 -1 1 0 0 Z " fill="#1B426A" transform="translate(31,105)"/>
<path d="M0 0 C1.02104551 0.97850195 2.0206121 1.97980427 3 3 C4.65438613 3.69658363 6.32254318 4.36096883 8 5 C9.67888441 5.97934924 11.34338239 6.98343919 13 8 C15.36568406 9.28006192 17.73417103 10.55408758 20.109375 11.81640625 C22 13 22 13 23 15 C25.16513298 16.32328745 25.16513298 16.32328745 27.75 17.5625 C28.61109375 17.99691406 29.4721875 18.43132812 30.359375 18.87890625 C35.95802343 21.25584722 42.05806188 22.17677525 47.8125 19.875 C49.70202543 18.76351446 51.58595898 17.64227624 53.45703125 16.5 C54.77767578 15.695625 54.77767578 15.695625 56.125 14.875 C56.95257813 14.35679688 57.78015625 13.83859375 58.6328125 13.3046875 C61 12 61 12 63.1171875 11.5078125 C65.52357592 10.85878658 66.26172048 9.79071022 68 8 C70.29145511 6.3628486 72.58342621 4.79022991 74.9375 3.25 C75.86852539 2.61384766 75.86852539 2.61384766 76.81835938 1.96484375 C81.41852443 -1.0431449 81.41852443 -1.0431449 84.31640625 -0.828125 C85.54642271 -0.2231053 86.77395291 0.38697646 88 1 C88 2.32 88 3.64 88 5 C88.99 5.495 88.99 5.495 90 6 C89.38722388 8.96175123 88.74627478 10.38058783 87 13 C87.99 13.33 88.98 13.66 90 14 C84.25 17 84.25 17 82 17 C82 17.66 82 18.32 82 19 C80.02 19.66 78.04 20.32 76 21 C76 21.66 76 22.32 76 23 C74.35 23.33 72.7 23.66 71 24 C71 24.66 71 25.32 71 26 C68.03 26.99 65.06 27.98 62 29 C62 29.66 62 30.32 62 31 C44.20950316 41.11439414 44.20950316 41.11439414 34 39 C31.03527196 37.91354687 28.70896206 36.66705358 26 35 C26 34.34 26 33.68 26 33 C25.113125 32.7525 24.22625 32.505 23.3125 32.25 C20 31 20 31 17.75 29.1875 C14.48137159 26.58745467 11.06138405 24.9411468 7.3046875 23.1484375 C5 22 5 22 2 20 C2 19.34 2 18.68 2 18 C0.02 17.34 -1.96 16.68 -4 16 C-4 15.34 -4 14.68 -4 14 C-4.886875 13.71125 -5.77375 13.4225 -6.6875 13.125 C-9.49042733 12.17306241 -12.25155423 11.09937831 -15 10 C-15 14.29 -15 18.58 -15 23 C-14.34 23 -13.68 23 -13 23 C-12.34 24.98 -11.68 26.96 -11 29 C-13.46800047 27.84826645 -15.04783565 26.95216435 -17 25 C-17.1993633 22.16786839 -17.27820873 19.45527632 -17.25 16.625 C-17.25773437 15.85671875 -17.26546875 15.0884375 -17.2734375 14.296875 C-17.24848641 7.08600987 -17.24848641 7.08600987 -15 4 C-9.86636628 0.09397435 -6.32765628 -1.94697116 0 0 Z " fill="#33628C" transform="translate(46,96)"/>
<path d="M0 0 C0 0.66 0 1.32 0 2 C-0.99 2 -1.98 2 -3 2 C-3.2475 2.61875 -3.495 3.2375 -3.75 3.875 C-5.23281451 6.39578467 -6.40863958 6.7852998 -9 8 C-9.99 9.485 -9.99 9.485 -11 11 C-12.73465747 12.02235851 -14.51204256 12.97355311 -16.3125 13.875 C-19.58658322 15.58674364 -22.39168089 17.05769263 -24.875 19.8125 C-27 22 -27 22 -32 23 C-32 27.62 -32 32.24 -32 37 C-30.515 36.505 -30.515 36.505 -29 36 C-28.67 37.32 -28.34 38.64 -28 40 C-27.34 40 -26.68 40 -26 40 C-25.67 40.99 -25.34 41.98 -25 43 C-30.93388551 40.91512131 -30.93388551 40.91512131 -33 38 C-33.32657168 35.27562722 -33.46445597 32.84510237 -33.4375 30.125 C-33.4674707 29.06345703 -33.4674707 29.06345703 -33.49804688 27.98046875 C-33.49494871 24.65303658 -33.16125297 22.29295014 -31.55078125 19.3671875 C-27.9405202 16.01677678 -23.95024564 13.549918 -19.75 11 C-18.92886719 10.49210937 -18.10773437 9.98421875 -17.26171875 9.4609375 C-15.63383857 8.4547992 -14.0030211 7.45339601 -12.36914062 6.45703125 C-9.41873956 4.64252243 -6.50752882 2.76905394 -3.60253906 0.8828125 C-2 0 -2 0 0 0 Z " fill="#609DC3" transform="translate(62,49)"/>
<path d="M0 0 C6.75 1.75 6.75 1.75 9 4 C10.57341143 10.45098688 10.66250712 17.55778491 9 24 C8.67 24 8.34 24 8 24 C7.67 18.72 7.34 13.44 7 8 C4.525 9.485 4.525 9.485 2 11 C1.01 11 0.02 11 -1 11 C-0.649375 10.4225 -0.29875 9.845 0.0625 9.25 C1.17253823 6.58590824 0.8645099 5.67998068 0 3 C0 2.01 0 1.02 0 0 Z " fill="#6585A3" transform="translate(134,98)"/>
<path d="M0 0 C0 5.61 0 11.22 0 17 C-2.31 18.32 -4.62 19.64 -7 21 C-7.66 20.67 -8.32 20.34 -9 20 C-8.3125 18.0625 -8.3125 18.0625 -7 16 C-4.375 15.25 -4.375 15.25 -2 15 C-2 13.35 -2 11.7 -2 10 C-2.66 10 -3.32 10 -4 10 C-4 7.69 -4 5.38 -4 3 C-4.66 3 -5.32 3 -6 3 C-6 2.34 -6 1.68 -6 1 C-4 0 -4 0 0 0 Z " fill="#4E92BB" transform="translate(142,72)"/>
<path d="M0 0 C-2.01191543 1.32816672 -4.0328114 2.63698759 -6.0625 3.9375 C-6.90458008 4.49727539 -6.90458008 4.49727539 -7.76367188 5.06835938 C-12.54774426 8.10282815 -16.8528047 9.52371679 -22.51171875 8.58203125 C-26.87742748 7.03796551 -30.02850197 5.74667143 -33 2 C-31.68 2 -30.36 2 -29 2 C-28.67 2.66 -28.34 3.32 -28 4 C-24.11298145 5.94350927 -20.28906722 6.49540386 -16 7 C-16 6.34 -16 5.68 -16 5 C-14.35 5 -12.7 5 -11 5 C-10.67 3.68 -10.34 2.36 -10 1 C-8.71073008 0.63720544 -7.41846728 0.28503302 -6.125 -0.0625 C-5.04605469 -0.35833984 -5.04605469 -0.35833984 -3.9453125 -0.66015625 C-2 -1 -2 -1 0 0 Z " fill="#75818B" transform="translate(105,170)"/>
<path d="M0 0 C4.76257511 1.6589792 8.81826127 4.20630361 13.0625 6.875 C13.76955078 7.30941406 14.47660156 7.74382813 15.20507812 8.19140625 C18.88699198 10.49389886 22.07728795 12.73567225 25 16 C9.28739003 11.43108504 9.28739003 11.43108504 5 5 C3.35305515 3.31384218 1.68873879 1.64429829 0 0 Z " fill="#99C1DB" transform="translate(114,51)"/>
<path d="M0 0 C1.91796875 0.69140625 1.91796875 0.69140625 4 2 C4.86328125 4.27734375 4.86328125 4.27734375 5.3125 6.9375 C5.47363281 7.81277344 5.63476562 8.68804687 5.80078125 9.58984375 C6 12 6 12 5 15 C4.34 15 3.68 15 3 15 C1.375 13 1.375 13 0 11 C0.66 11 1.32 11 2 11 C2 9.68 2 8.36 2 7 C1.34 7 0.68 7 0 7 C-0.93423645 3.98968256 -1.04449911 3.13349732 0 0 Z " fill="#233747" transform="translate(138,132)"/>
<path d="M0 0 C1.3271261 3.9813783 1.06915913 7.85045227 1 12 C2.65 12 4.3 12 6 12 C6.33 13.65 6.66 15.3 7 17 C3.07882724 15.69294241 0.42368343 14.41111001 -2 11 C-2.69960938 6.72460934 -2.45290347 3.67935521 0 0 Z " fill="#78828B" transform="translate(31,134)"/>
<path d="M0 0 C2.97 0.495 2.97 0.495 6 1 C6 1.66 6 2.32 6 3 C6.99 3 7.98 3 9 3 C9 3.66 9 4.32 9 5 C9.99 5.33 10.98 5.66 12 6 C11.34 6.66 10.68 7.32 10 8 C8.68 8 7.36 8 6 8 C5.67 7.34 5.34 6.68 5 6 C2.97536745 5.34786708 2.97536745 5.34786708 1 5 C1.66 4.34 2.32 3.68 3 3 C2.01 2.01 1.02 1.02 0 0 Z " fill="#485E73" transform="translate(35,125)"/>
<path d="M0 0 C0.33 0 0.66 0 1 0 C1.33 4.95 1.66 9.9 2 15 C2.66 15 3.32 15 4 15 C4.66 16.98 5.32 18.96 6 21 C3.53199953 19.84826645 1.95216435 18.95216435 0 17 C-0.14517744 14.0906442 -0.18630796 11.280054 -0.125 8.375 C-0.11597656 7.57320313 -0.10695313 6.77140625 -0.09765625 5.9453125 C-0.07406223 3.96341477 -0.03819065 1.98167019 0 0 Z " fill="#8393A8" transform="translate(29,104)"/>
<path d="M0 0 C0.33 0 0.66 0 1 0 C1 4.95 1 9.9 1 15 C1.99 14.67 2.98 14.34 4 14 C4.33 15.32 4.66 16.64 5 18 C5.66 18 6.32 18 7 18 C7.33 18.99 7.66 19.98 8 21 C2.0074928 18.8945245 2.0074928 18.8945245 0 16 C-0.21714241 13.18872957 -0.28284276 10.6116655 -0.1875 7.8125 C-0.17396484 7.06291016 -0.16042969 6.31332031 -0.14648438 5.54101562 C-0.11118539 3.69370233 -0.05737917 1.84675934 0 0 Z " fill="#97B9CE" transform="translate(29,71)"/>
<path d="M0 0 C-3.28355362 3.67758005 -6.62778237 5.81389118 -11 8 C-11.66 7.67 -12.32 7.34 -13 7 C-12.01 6.67 -11.02 6.34 -10 6 C-9.65657551 4.66923011 -9.32380126 3.33568021 -9 2 C-5.5647952 -0.29013653 -4.014669 -0.17842973 0 0 Z " fill="#717D88" transform="translate(138,149)"/>
<path d="M0 0 C0 0.66 0 1.32 0 2 C-0.99 2 -1.98 2 -3 2 C-3.2371875 2.61230469 -3.474375 3.22460938 -3.71875 3.85546875 C-5.31703813 6.53065224 -6.65522554 7.11640165 -9.5 8.3125 C-10.69109375 8.83263672 -10.69109375 8.83263672 -11.90625 9.36328125 C-14 10 -14 10 -16 9 C-13.71180854 7.49445366 -11.41978831 5.99542957 -9.125 4.5 C-8.47402344 4.07074219 -7.82304688 3.64148437 -7.15234375 3.19921875 C-2.2265625 0 -2.2265625 0 0 0 Z " fill="#9EC5D9" transform="translate(62,49)"/>
<path d="M0 0 C0.66 0.33 1.32 0.66 2 1 C-0.34568889 4.51853334 -1.60079509 4.87501722 -5.5 6.25 C-6.4796875 6.60578125 -7.459375 6.9615625 -8.46875 7.328125 C-11 8 -11 8 -13 7 C-8.80639157 4.03378916 -4.83705571 1.76738574 0 0 Z " fill="#82B5D1" transform="translate(51,56)"/>
<path d="M0 0 C9.29144385 3.5828877 9.29144385 3.5828877 11 7 C8.69 6.34 6.38 5.68 4 5 C4 4.34 4 3.68 4 3 C3.32453125 2.93941406 2.6490625 2.87882812 1.953125 2.81640625 C0.61507812 2.69072266 0.61507812 2.69072266 -0.75 2.5625 C-1.63171875 2.48128906 -2.5134375 2.40007813 -3.421875 2.31640625 C-5.69350452 2.03761535 -7.79851823 1.61209423 -10 1 C-6.72799921 -0.63600039 -3.53431786 -0.53567915 0 0 Z " fill="#A7CDDF" transform="translate(90,36)"/>
<path d="M0 0 C0 2.31 0 4.62 0 7 C-0.66 7 -1.32 7 -2 7 C-2.66 5.68 -3.32 4.36 -4 3 C-5.32 3.99 -6.64 4.98 -8 6 C-8.33 5.01 -8.66 4.02 -9 3 C-5.55930376 0.70620251 -4.27709699 0 0 0 Z " fill="#478CBA" transform="translate(138,75)"/>
<path d="M0 0 C2.625 -0.1875 2.625 -0.1875 5 0 C1.70291736 3.69273255 -1.53845386 5.92856786 -6 8 C-8.4375 7.25 -8.4375 7.25 -10 6 C-10 5.67 -10 5.34 -10 5 C-6.97265625 4.36523438 -6.97265625 4.36523438 -3.9453125 3.73046875 C-1.62953451 3.07691162 -1.62953451 3.07691162 0 0 Z " fill="#778690" transform="translate(120,157)"/>
<path d="M0 0 C0 1.32 0 2.64 0 4 C-2.64738916 5.4606285 -3.89448334 6 -7 6 C-7 6.66 -7 7.32 -7 8 C-7.66 8 -8.32 8 -9 8 C-8.875 6.25 -8.875 6.25 -8 4 C-2.77777778 0 -2.77777778 0 0 0 Z " fill="#728CA3" transform="translate(39,96)"/>
<path d="M0 0 C5.75 -0.125 5.75 -0.125 8 1 C8 1.99 8 2.98 8 4 C8.66 4 9.32 4 10 4 C10 4.66 10 5.32 10 6 C5.56909529 4.79157144 3.01887244 3.48331435 0 0 Z " fill="#6A7681" transform="translate(56,162)"/>
<path d="M0 0 C6.77525425 2.25841808 9.61388684 3.42845086 14 9 C10.40241608 7.67726488 7.36262865 6.0805802 4.1875 3.9375 C3.39730469 3.41027344 2.60710938 2.88304687 1.79296875 2.33984375 C1.20128906 1.89769531 0.60960937 1.45554688 0 1 C0 0.67 0 0.34 0 0 Z " fill="#828D95" transform="translate(42,153)"/>
<path d="M0 0 C1.91796875 0.69140625 1.91796875 0.69140625 4 2 C4.86328125 4.27734375 4.86328125 4.27734375 5.3125 6.9375 C5.47363281 7.81277344 5.63476562 8.68804687 5.80078125 9.58984375 C6 12 6 12 5 15 C4.34 14.67 3.68 14.34 3 14 C3 10.37 3 6.74 3 3 C2.01 3 1.02 3 0 3 C0 2.01 0 1.02 0 0 Z " fill="#97A1A8" transform="translate(138,132)"/>
<path d="M0 0 C2 1 2 1 3 3 C0.09907498 4.93395001 -0.89674737 5.30131941 -4.1875 5.625 C-5.445625 5.74875 -6.70375 5.8725 -8 6 C-5.63404067 3.38499232 -3.13950774 1.61000397 0 0 Z " fill="#92C1DE" transform="translate(78,38)"/>
<path d="M0 0 C0.99 0.33 1.98 0.66 3 1 C2.67 4.96 2.34 8.92 2 13 C0.12815629 9.25631258 -0.23999767 8.1599209 -0.125 4.25 C-0.10695313 3.45078125 -0.08890625 2.6515625 -0.0703125 1.828125 C-0.04710938 1.22484375 -0.02390625 0.6215625 0 0 Z " fill="#1D3858" transform="translate(30,106)"/>
<path d="M0 0 C-4.95 2.97 -4.95 2.97 -10 6 C-8 1 -8 1 -5 -0.375 C-2 -1 -2 -1 0 0 Z " fill="#798BA0" transform="translate(142,123)"/>
<path d="M0 0 C-0.125 1.875 -0.125 1.875 -1 4 C-4.0625 5.25 -4.0625 5.25 -7 6 C-4.84615385 0 -4.84615385 0 0 0 Z " fill="#75A4C1" transform="translate(140,87)"/>
<path d="M0 0 C3.4375 1.1875 3.4375 1.1875 4.4375 3.1875 C3.48875 3.166875 2.54 3.14625 1.5625 3.125 C-1.46916283 2.96198174 -1.46916283 2.96198174 -3.5625 4.1875 C-3.5625 3.1975 -3.5625 2.2075 -3.5625 1.1875 C-4.2225 0.8575 -4.8825 0.5275 -5.5625 0.1875 C-3.5625 -0.8125 -3.5625 -0.8125 0 0 Z " fill="#4F6575" transform="translate(133.5625,128.8125)"/>
<path d="M0 0 C1.65 0 3.3 0 5 0 C5.33 1.65 5.66 3.3 6 5 C3.5625 4.1875 3.5625 4.1875 1 3 C0.67 2.01 0.34 1.02 0 0 Z " fill="#65757F" transform="translate(32,146)"/>
<path d="M0 0 C0.66 0.33 1.32 0.66 2 1 C-0.31944788 4.47917182 -2.26369964 5.29429766 -6 7 C-4.60667426 3.63279613 -3.0210714 2.0140476 0 0 Z " fill="#9BBDD5" transform="translate(36,64)"/>
</svg>
